<mxfile host="65bd71144e" modified="2021-01-04T11:19:34.284Z" agent="5.0 (Macintosh; Intel Mac OS X 10_15_7) AppleWebKit/537.36 (KHTML, like Gecko) Code/1.51.1 Chrome/83.0.4103.122 Electron/9.3.3 Safari/537.36" etag="4XluDirpY-np2kU7G2M3" version="13.10.0" type="embed" pages="2">
    <diagram id="R2lEEEUBdFMjLlhIrx00" name="Page-1">
        <mxGraphModel dx="739" dy="760" grid="1" gridSize="10" guides="1" tooltips="1" connect="1" arrows="1" fold="1" page="1" pageScale="1" pageWidth="850" pageHeight="1100" background="#F4F1DE" math="0" shadow="0" extFonts="Permanent Marker^https://fonts.googleapis.com/css?family=Permanent+Marker">
            <root>
                <mxCell id="0"/>
                <mxCell id="1" parent="0"/>
                <mxCell id="C-vyLk0tnHw3VtMMgP7b-2" value="Animal" style="shape=table;startSize=30;container=1;collapsible=1;childLayout=tableLayout;fixedRows=1;rowLines=0;fontStyle=1;align=center;resizeLast=1;fillColor=#F2CC8F;strokeColor=#E07A5F;fontColor=#393C56;" parent="1" vertex="1">
                    <mxGeometry x="490" y="195" width="270" height="320" as="geometry"/>
                </mxCell>
                <mxCell id="C-vyLk0tnHw3VtMMgP7b-3" value="" style="shape=partialRectangle;collapsible=0;dropTarget=0;pointerEvents=0;fillColor=none;points=[[0,0.5],[1,0.5]];portConstraint=eastwest;top=0;left=0;right=0;bottom=1;strokeColor=#E07A5F;fontColor=#393C56;" parent="C-vyLk0tnHw3VtMMgP7b-2" vertex="1">
                    <mxGeometry y="30" width="270" height="30" as="geometry"/>
                </mxCell>
                <mxCell id="C-vyLk0tnHw3VtMMgP7b-4" value="PK" style="shape=partialRectangle;overflow=hidden;connectable=0;fillColor=none;top=0;left=0;bottom=0;right=0;fontStyle=1;strokeColor=#E07A5F;fontColor=#393C56;" parent="C-vyLk0tnHw3VtMMgP7b-3" vertex="1">
                    <mxGeometry width="30" height="30" as="geometry"/>
                </mxCell>
                <mxCell id="C-vyLk0tnHw3VtMMgP7b-5" value="ID" style="shape=partialRectangle;overflow=hidden;connectable=0;fillColor=none;top=0;left=0;bottom=0;right=0;align=left;spacingLeft=6;fontStyle=5;strokeColor=#E07A5F;fontColor=#393C56;" parent="C-vyLk0tnHw3VtMMgP7b-3" vertex="1">
                    <mxGeometry x="30" width="240" height="30" as="geometry"/>
                </mxCell>
                <mxCell id="C-vyLk0tnHw3VtMMgP7b-6" value="" style="shape=partialRectangle;collapsible=0;dropTarget=0;pointerEvents=0;fillColor=none;points=[[0,0.5],[1,0.5]];portConstraint=eastwest;top=0;left=0;right=0;bottom=0;strokeColor=#E07A5F;fontColor=#393C56;" parent="C-vyLk0tnHw3VtMMgP7b-2" vertex="1">
                    <mxGeometry y="60" width="270" height="30" as="geometry"/>
                </mxCell>
                <mxCell id="C-vyLk0tnHw3VtMMgP7b-7" value="" style="shape=partialRectangle;overflow=hidden;connectable=0;fillColor=none;top=0;left=0;bottom=0;right=0;strokeColor=#E07A5F;fontColor=#393C56;" parent="C-vyLk0tnHw3VtMMgP7b-6" vertex="1">
                    <mxGeometry width="30" height="30" as="geometry"/>
                </mxCell>
                <mxCell id="C-vyLk0tnHw3VtMMgP7b-8" value="Name : str" style="shape=partialRectangle;overflow=hidden;connectable=0;fillColor=none;top=0;left=0;bottom=0;right=0;align=left;spacingLeft=6;strokeColor=#E07A5F;fontColor=#393C56;" parent="C-vyLk0tnHw3VtMMgP7b-6" vertex="1">
                    <mxGeometry x="30" width="240" height="30" as="geometry"/>
                </mxCell>
                <mxCell id="C-vyLk0tnHw3VtMMgP7b-9" value="" style="shape=partialRectangle;collapsible=0;dropTarget=0;pointerEvents=0;fillColor=none;points=[[0,0.5],[1,0.5]];portConstraint=eastwest;top=0;left=0;right=0;bottom=0;strokeColor=#E07A5F;fontColor=#393C56;" parent="C-vyLk0tnHw3VtMMgP7b-2" vertex="1">
                    <mxGeometry y="90" width="270" height="30" as="geometry"/>
                </mxCell>
                <mxCell id="C-vyLk0tnHw3VtMMgP7b-10" value="" style="shape=partialRectangle;overflow=hidden;connectable=0;fillColor=none;top=0;left=0;bottom=0;right=0;strokeColor=#E07A5F;fontColor=#393C56;" parent="C-vyLk0tnHw3VtMMgP7b-9" vertex="1">
                    <mxGeometry width="30" height="30" as="geometry"/>
                </mxCell>
                <mxCell id="C-vyLk0tnHw3VtMMgP7b-11" value="DOB: str" style="shape=partialRectangle;overflow=hidden;connectable=0;fillColor=none;top=0;left=0;bottom=0;right=0;align=left;spacingLeft=6;strokeColor=#E07A5F;fontColor=#393C56;" parent="C-vyLk0tnHw3VtMMgP7b-9" vertex="1">
                    <mxGeometry x="30" width="240" height="30" as="geometry"/>
                </mxCell>
                <mxCell id="m3qaLlp12Cmb-U1JboAg-4" value="" style="shape=partialRectangle;collapsible=0;dropTarget=0;pointerEvents=0;fillColor=none;points=[[0,0.5],[1,0.5]];portConstraint=eastwest;top=0;left=0;right=0;bottom=0;strokeColor=#E07A5F;fontColor=#393C56;" parent="C-vyLk0tnHw3VtMMgP7b-2" vertex="1">
                    <mxGeometry y="120" width="270" height="30" as="geometry"/>
                </mxCell>
                <mxCell id="m3qaLlp12Cmb-U1JboAg-5" value="" style="shape=partialRectangle;overflow=hidden;connectable=0;fillColor=none;top=0;left=0;bottom=0;right=0;strokeColor=#E07A5F;fontColor=#393C56;" parent="m3qaLlp12Cmb-U1JboAg-4" vertex="1">
                    <mxGeometry width="30" height="30" as="geometry"/>
                </mxCell>
                <mxCell id="m3qaLlp12Cmb-U1JboAg-6" value="type_of: str" style="shape=partialRectangle;overflow=hidden;connectable=0;fillColor=none;top=0;left=0;bottom=0;right=0;align=left;spacingLeft=6;strokeColor=#E07A5F;fontColor=#393C56;" parent="m3qaLlp12Cmb-U1JboAg-4" vertex="1">
                    <mxGeometry x="30" width="240" height="30" as="geometry"/>
                </mxCell>
                <mxCell id="m3qaLlp12Cmb-U1JboAg-10" value="" style="shape=partialRectangle;collapsible=0;dropTarget=0;pointerEvents=0;fillColor=none;points=[[0,0.5],[1,0.5]];portConstraint=eastwest;top=0;left=0;right=0;bottom=0;strokeColor=#E07A5F;fontColor=#393C56;" parent="C-vyLk0tnHw3VtMMgP7b-2" vertex="1">
                    <mxGeometry y="150" width="270" height="40" as="geometry"/>
                </mxCell>
                <mxCell id="m3qaLlp12Cmb-U1JboAg-11" value="" style="shape=partialRectangle;overflow=hidden;connectable=0;fillColor=none;top=0;left=0;bottom=0;right=0;strokeColor=#E07A5F;fontColor=#393C56;" parent="m3qaLlp12Cmb-U1JboAg-10" vertex="1">
                    <mxGeometry width="30" height="40" as="geometry"/>
                </mxCell>
                <mxCell id="m3qaLlp12Cmb-U1JboAg-12" value="treatment_notes: str/text?" style="shape=partialRectangle;overflow=hidden;connectable=0;fillColor=none;top=0;left=0;bottom=0;right=0;align=left;spacingLeft=6;strokeColor=#E07A5F;fontColor=#393C56;" parent="m3qaLlp12Cmb-U1JboAg-10" vertex="1">
                    <mxGeometry x="30" width="240" height="40" as="geometry"/>
                </mxCell>
                <mxCell id="m3qaLlp12Cmb-U1JboAg-13" value="" style="shape=partialRectangle;collapsible=0;dropTarget=0;pointerEvents=0;fillColor=none;points=[[0,0.5],[1,0.5]];portConstraint=eastwest;top=0;left=0;right=0;bottom=0;strokeColor=#E07A5F;fontColor=#393C56;" parent="C-vyLk0tnHw3VtMMgP7b-2" vertex="1">
                    <mxGeometry y="190" width="270" height="45" as="geometry"/>
                </mxCell>
                <mxCell id="m3qaLlp12Cmb-U1JboAg-14" value="FK" style="shape=partialRectangle;overflow=hidden;connectable=0;fillColor=none;top=0;left=0;bottom=0;right=0;strokeColor=#E07A5F;fontColor=#393C56;" parent="m3qaLlp12Cmb-U1JboAg-13" vertex="1">
                    <mxGeometry width="30" height="45" as="geometry"/>
                </mxCell>
                <mxCell id="m3qaLlp12Cmb-U1JboAg-15" value="vet_id" style="shape=partialRectangle;overflow=hidden;connectable=0;fillColor=none;top=0;left=0;bottom=0;right=0;align=left;spacingLeft=6;strokeColor=#E07A5F;fontColor=#393C56;" parent="m3qaLlp12Cmb-U1JboAg-13" vertex="1">
                    <mxGeometry x="30" width="240" height="45" as="geometry"/>
                </mxCell>
                <mxCell id="s-KigwSb3vza7i4PE5DC-38" value="" style="shape=partialRectangle;collapsible=0;dropTarget=0;pointerEvents=0;fillColor=none;points=[[0,0.5],[1,0.5]];portConstraint=eastwest;top=0;left=0;right=0;bottom=0;strokeColor=#E07A5F;fontColor=#393C56;" parent="C-vyLk0tnHw3VtMMgP7b-2" vertex="1">
                    <mxGeometry y="235" width="270" height="40" as="geometry"/>
                </mxCell>
                <mxCell id="s-KigwSb3vza7i4PE5DC-39" value="FK" style="shape=partialRectangle;overflow=hidden;connectable=0;fillColor=none;top=0;left=0;bottom=0;right=0;strokeColor=#E07A5F;fontColor=#393C56;" parent="s-KigwSb3vza7i4PE5DC-38" vertex="1">
                    <mxGeometry width="30" height="40" as="geometry"/>
                </mxCell>
                <mxCell id="s-KigwSb3vza7i4PE5DC-40" value="customer_id" style="shape=partialRectangle;overflow=hidden;connectable=0;fillColor=none;top=0;left=0;bottom=0;right=0;align=left;spacingLeft=6;strokeColor=#E07A5F;fontColor=#393C56;" parent="s-KigwSb3vza7i4PE5DC-38" vertex="1">
                    <mxGeometry x="30" width="240" height="40" as="geometry"/>
                </mxCell>
                <mxCell id="IXvi4t9SbVjZ0gb9KFW6-1" value="" style="shape=partialRectangle;collapsible=0;dropTarget=0;pointerEvents=0;fillColor=none;points=[[0,0.5],[1,0.5]];portConstraint=eastwest;top=0;left=0;right=0;bottom=0;strokeColor=#E07A5F;fontColor=#393C56;" parent="C-vyLk0tnHw3VtMMgP7b-2" vertex="1">
                    <mxGeometry y="275" width="270" height="40" as="geometry"/>
                </mxCell>
                <mxCell id="IXvi4t9SbVjZ0gb9KFW6-2" value="" style="shape=partialRectangle;overflow=hidden;connectable=0;fillColor=none;top=0;left=0;bottom=0;right=0;strokeColor=#E07A5F;fontColor=#393C56;" parent="IXvi4t9SbVjZ0gb9KFW6-1" vertex="1">
                    <mxGeometry width="30" height="40" as="geometry"/>
                </mxCell>
                <mxCell id="IXvi4t9SbVjZ0gb9KFW6-3" value="" style="shape=partialRectangle;overflow=hidden;connectable=0;fillColor=none;top=0;left=0;bottom=0;right=0;align=left;spacingLeft=6;strokeColor=#E07A5F;fontColor=#393C56;" parent="IXvi4t9SbVjZ0gb9KFW6-1" vertex="1">
                    <mxGeometry x="30" width="240" height="40" as="geometry"/>
                </mxCell>
                <mxCell id="C-vyLk0tnHw3VtMMgP7b-23" value="Customer" style="shape=table;startSize=30;container=1;collapsible=1;childLayout=tableLayout;fixedRows=1;rowLines=0;fontStyle=1;align=center;resizeLast=1;fillColor=#F2CC8F;strokeColor=#E07A5F;fontColor=#393C56;" parent="1" vertex="1">
                    <mxGeometry x="285" y="630" width="260" height="240" as="geometry"/>
                </mxCell>
                <mxCell id="C-vyLk0tnHw3VtMMgP7b-24" value="" style="shape=partialRectangle;collapsible=0;dropTarget=0;pointerEvents=0;fillColor=none;points=[[0,0.5],[1,0.5]];portConstraint=eastwest;top=0;left=0;right=0;bottom=1;strokeColor=#E07A5F;fontColor=#393C56;" parent="C-vyLk0tnHw3VtMMgP7b-23" vertex="1">
                    <mxGeometry y="30" width="260" height="30" as="geometry"/>
                </mxCell>
                <mxCell id="C-vyLk0tnHw3VtMMgP7b-25" value="PK" style="shape=partialRectangle;overflow=hidden;connectable=0;fillColor=none;top=0;left=0;bottom=0;right=0;fontStyle=1;strokeColor=#E07A5F;fontColor=#393C56;" parent="C-vyLk0tnHw3VtMMgP7b-24" vertex="1">
                    <mxGeometry width="30" height="30" as="geometry"/>
                </mxCell>
                <mxCell id="C-vyLk0tnHw3VtMMgP7b-26" value="ID" style="shape=partialRectangle;overflow=hidden;connectable=0;fillColor=none;top=0;left=0;bottom=0;right=0;align=left;spacingLeft=6;fontStyle=5;strokeColor=#E07A5F;fontColor=#393C56;" parent="C-vyLk0tnHw3VtMMgP7b-24" vertex="1">
                    <mxGeometry x="30" width="230" height="30" as="geometry"/>
                </mxCell>
                <mxCell id="C-vyLk0tnHw3VtMMgP7b-27" value="" style="shape=partialRectangle;collapsible=0;dropTarget=0;pointerEvents=0;fillColor=none;points=[[0,0.5],[1,0.5]];portConstraint=eastwest;top=0;left=0;right=0;bottom=0;strokeColor=#E07A5F;fontColor=#393C56;" parent="C-vyLk0tnHw3VtMMgP7b-23" vertex="1">
                    <mxGeometry y="60" width="260" height="30" as="geometry"/>
                </mxCell>
                <mxCell id="C-vyLk0tnHw3VtMMgP7b-28" value="" style="shape=partialRectangle;overflow=hidden;connectable=0;fillColor=none;top=0;left=0;bottom=0;right=0;strokeColor=#E07A5F;fontColor=#393C56;" parent="C-vyLk0tnHw3VtMMgP7b-27" vertex="1">
                    <mxGeometry width="30" height="30" as="geometry"/>
                </mxCell>
                <mxCell id="C-vyLk0tnHw3VtMMgP7b-29" value="Name: str" style="shape=partialRectangle;overflow=hidden;connectable=0;fillColor=none;top=0;left=0;bottom=0;right=0;align=left;spacingLeft=6;strokeColor=#E07A5F;fontColor=#393C56;" parent="C-vyLk0tnHw3VtMMgP7b-27" vertex="1">
                    <mxGeometry x="30" width="230" height="30" as="geometry"/>
                </mxCell>
                <mxCell id="4" value="" style="shape=partialRectangle;collapsible=0;dropTarget=0;pointerEvents=0;fillColor=none;points=[[0,0.5],[1,0.5]];portConstraint=eastwest;top=0;left=0;right=0;bottom=0;strokeColor=#E07A5F;fontColor=#393C56;" vertex="1" parent="C-vyLk0tnHw3VtMMgP7b-23">
                    <mxGeometry y="90" width="260" height="30" as="geometry"/>
                </mxCell>
                <mxCell id="5" value="" style="shape=partialRectangle;overflow=hidden;connectable=0;fillColor=none;top=0;left=0;bottom=0;right=0;strokeColor=#E07A5F;fontColor=#393C56;" vertex="1" parent="4">
                    <mxGeometry width="30" height="30" as="geometry"/>
                </mxCell>
                <mxCell id="6" value="contact_details = int" style="shape=partialRectangle;overflow=hidden;connectable=0;fillColor=none;top=0;left=0;bottom=0;right=0;align=left;spacingLeft=6;strokeColor=#E07A5F;fontColor=#393C56;" vertex="1" parent="4">
                    <mxGeometry x="30" width="230" height="30" as="geometry"/>
                </mxCell>
                <mxCell id="NEEXJx2L8Bbpgz6CrJtG-1" value="" style="shape=partialRectangle;collapsible=0;dropTarget=0;pointerEvents=0;fillColor=none;points=[[0,0.5],[1,0.5]];portConstraint=eastwest;top=0;left=0;right=0;bottom=0;strokeColor=#E07A5F;fontColor=#393C56;" parent="C-vyLk0tnHw3VtMMgP7b-23" vertex="1">
                    <mxGeometry y="120" width="260" height="30" as="geometry"/>
                </mxCell>
                <mxCell id="NEEXJx2L8Bbpgz6CrJtG-2" value="FK" style="shape=partialRectangle;overflow=hidden;connectable=0;fillColor=none;top=0;left=0;bottom=0;right=0;strokeColor=#E07A5F;fontColor=#393C56;" parent="NEEXJx2L8Bbpgz6CrJtG-1" vertex="1">
                    <mxGeometry width="30" height="30" as="geometry"/>
                </mxCell>
                <mxCell id="NEEXJx2L8Bbpgz6CrJtG-3" value="vet_id" style="shape=partialRectangle;overflow=hidden;connectable=0;fillColor=none;top=0;left=0;bottom=0;right=0;align=left;spacingLeft=6;strokeColor=#E07A5F;fontColor=#393C56;" parent="NEEXJx2L8Bbpgz6CrJtG-1" vertex="1">
                    <mxGeometry x="30" width="230" height="30" as="geometry"/>
                </mxCell>
                <mxCell id="sMl9wzCmshgmMqr8aEdK-1" value="" style="shape=partialRectangle;collapsible=0;dropTarget=0;pointerEvents=0;fillColor=none;points=[[0,0.5],[1,0.5]];portConstraint=eastwest;top=0;left=0;right=0;bottom=0;strokeColor=#E07A5F;fontColor=#393C56;" parent="C-vyLk0tnHw3VtMMgP7b-23" vertex="1">
                    <mxGeometry y="150" width="260" height="30" as="geometry"/>
                </mxCell>
                <mxCell id="sMl9wzCmshgmMqr8aEdK-2" value="" style="shape=partialRectangle;overflow=hidden;connectable=0;fillColor=none;top=0;left=0;bottom=0;right=0;strokeColor=#E07A5F;fontColor=#393C56;" parent="sMl9wzCmshgmMqr8aEdK-1" vertex="1">
                    <mxGeometry width="30" height="30" as="geometry"/>
                </mxCell>
                <mxCell id="sMl9wzCmshgmMqr8aEdK-3" value="" style="shape=partialRectangle;overflow=hidden;connectable=0;fillColor=none;top=0;left=0;bottom=0;right=0;align=left;spacingLeft=6;strokeColor=#E07A5F;fontColor=#393C56;" parent="sMl9wzCmshgmMqr8aEdK-1" vertex="1">
                    <mxGeometry x="30" width="230" height="30" as="geometry"/>
                </mxCell>
                <mxCell id="sMl9wzCmshgmMqr8aEdK-4" value="" style="shape=partialRectangle;collapsible=0;dropTarget=0;pointerEvents=0;fillColor=none;points=[[0,0.5],[1,0.5]];portConstraint=eastwest;top=0;left=0;right=0;bottom=0;strokeColor=#E07A5F;fontColor=#393C56;" parent="C-vyLk0tnHw3VtMMgP7b-23" vertex="1">
                    <mxGeometry y="180" width="260" height="30" as="geometry"/>
                </mxCell>
                <mxCell id="sMl9wzCmshgmMqr8aEdK-5" value="" style="shape=partialRectangle;overflow=hidden;connectable=0;fillColor=none;top=0;left=0;bottom=0;right=0;strokeColor=#E07A5F;fontColor=#393C56;" parent="sMl9wzCmshgmMqr8aEdK-4" vertex="1">
                    <mxGeometry width="30" height="30" as="geometry"/>
                </mxCell>
                <mxCell id="sMl9wzCmshgmMqr8aEdK-6" value="" style="shape=partialRectangle;overflow=hidden;connectable=0;fillColor=none;top=0;left=0;bottom=0;right=0;align=left;spacingLeft=6;strokeColor=#E07A5F;fontColor=#393C56;" parent="sMl9wzCmshgmMqr8aEdK-4" vertex="1">
                    <mxGeometry x="30" width="230" height="30" as="geometry"/>
                </mxCell>
                <mxCell id="s-KigwSb3vza7i4PE5DC-77" value="" style="shape=partialRectangle;collapsible=0;dropTarget=0;pointerEvents=0;fillColor=none;points=[[0,0.5],[1,0.5]];portConstraint=eastwest;top=0;left=0;right=0;bottom=0;strokeColor=#E07A5F;fontColor=#393C56;" parent="C-vyLk0tnHw3VtMMgP7b-23" vertex="1">
                    <mxGeometry y="210" width="260" height="30" as="geometry"/>
                </mxCell>
                <mxCell id="s-KigwSb3vza7i4PE5DC-78" value="" style="shape=partialRectangle;overflow=hidden;connectable=0;fillColor=none;top=0;left=0;bottom=0;right=0;strokeColor=#E07A5F;fontColor=#393C56;" parent="s-KigwSb3vza7i4PE5DC-77" vertex="1">
                    <mxGeometry width="30" height="30" as="geometry"/>
                </mxCell>
                <mxCell id="s-KigwSb3vza7i4PE5DC-79" value="" style="shape=partialRectangle;overflow=hidden;connectable=0;fillColor=none;top=0;left=0;bottom=0;right=0;align=left;spacingLeft=6;strokeColor=#E07A5F;fontColor=#393C56;" parent="s-KigwSb3vza7i4PE5DC-77" vertex="1">
                    <mxGeometry x="30" width="230" height="30" as="geometry"/>
                </mxCell>
                <mxCell id="m3qaLlp12Cmb-U1JboAg-1" value="" style="edgeStyle=entityRelationEdgeStyle;fontSize=12;html=1;endArrow=ERoneToMany;strokeColor=#E07A5F;fillColor=#F2CC8F;curved=1;entryX=-0.011;entryY=0.058;entryDx=0;entryDy=0;entryPerimeter=0;fontColor=#393C56;labelBackgroundColor=#F4F1DE;" parent="1" edge="1">
                    <mxGeometry width="100" height="100" relative="1" as="geometry">
                        <mxPoint x="364" y="347" as="sourcePoint"/>
                        <mxPoint x="487.03" y="347.03" as="targetPoint"/>
                    </mxGeometry>
                </mxCell>
                <mxCell id="2M-peekqNy5MApfXIUkE-1" value="MODELS" style="text;html=1;strokeColor=none;fillColor=none;align=center;verticalAlign=middle;whiteSpace=wrap;rounded=0;fontColor=#393C56;fontSize=22;" parent="1" vertex="1">
                    <mxGeometry x="385" y="70" width="40" height="20" as="geometry"/>
                </mxCell>
                <mxCell id="ScVmh2xk-ahlKoW7a5Xp-1" value="one-to-many" style="text;html=1;align=center;verticalAlign=middle;resizable=0;points=[];autosize=1;fontColor=#393C56;" parent="1" vertex="1">
                    <mxGeometry x="390" y="310" width="80" height="20" as="geometry"/>
                </mxCell>
                <mxCell id="s-KigwSb3vza7i4PE5DC-36" value="" style="line;strokeWidth=2;html=1;rounded=0;labelBackgroundColor=none;sketch=0;fillColor=#F2CC8F;fontColor=#393C56;strokeColor=#E07A5F;" parent="1" vertex="1">
                    <mxGeometry x="150" y="420" width="160" height="10" as="geometry"/>
                </mxCell>
                <mxCell id="s-KigwSb3vza7i4PE5DC-41" value="Vet" style="shape=table;startSize=30;container=1;collapsible=1;childLayout=tableLayout;fixedRows=1;rowLines=0;fontStyle=1;align=center;resizeLast=1;fillColor=#F2CC8F;strokeColor=#E07A5F;fontColor=#393C56;" parent="1" vertex="1">
                    <mxGeometry x="100" y="260" width="260" height="290" as="geometry"/>
                </mxCell>
                <mxCell id="s-KigwSb3vza7i4PE5DC-42" value="" style="shape=partialRectangle;collapsible=0;dropTarget=0;pointerEvents=0;fillColor=none;points=[[0,0.5],[1,0.5]];portConstraint=eastwest;top=0;left=0;right=0;bottom=1;strokeColor=#E07A5F;fontColor=#393C56;" parent="s-KigwSb3vza7i4PE5DC-41" vertex="1">
                    <mxGeometry y="30" width="260" height="30" as="geometry"/>
                </mxCell>
                <mxCell id="s-KigwSb3vza7i4PE5DC-43" value="PK" style="shape=partialRectangle;overflow=hidden;connectable=0;fillColor=none;top=0;left=0;bottom=0;right=0;fontStyle=1;strokeColor=#E07A5F;fontColor=#393C56;" parent="s-KigwSb3vza7i4PE5DC-42" vertex="1">
                    <mxGeometry width="30" height="30" as="geometry"/>
                </mxCell>
                <mxCell id="s-KigwSb3vza7i4PE5DC-44" value="ID" style="shape=partialRectangle;overflow=hidden;connectable=0;fillColor=none;top=0;left=0;bottom=0;right=0;align=left;spacingLeft=6;fontStyle=5;strokeColor=#E07A5F;fontColor=#393C56;" parent="s-KigwSb3vza7i4PE5DC-42" vertex="1">
                    <mxGeometry x="30" width="230" height="30" as="geometry"/>
                </mxCell>
                <mxCell id="s-KigwSb3vza7i4PE5DC-45" value="" style="shape=partialRectangle;collapsible=0;dropTarget=0;pointerEvents=0;fillColor=none;points=[[0,0.5],[1,0.5]];portConstraint=eastwest;top=0;left=0;right=0;bottom=0;strokeColor=#E07A5F;fontColor=#393C56;" parent="s-KigwSb3vza7i4PE5DC-41" vertex="1">
                    <mxGeometry y="60" width="260" height="30" as="geometry"/>
                </mxCell>
                <mxCell id="s-KigwSb3vza7i4PE5DC-46" value="" style="shape=partialRectangle;overflow=hidden;connectable=0;fillColor=none;top=0;left=0;bottom=0;right=0;strokeColor=#E07A5F;fontColor=#393C56;" parent="s-KigwSb3vza7i4PE5DC-45" vertex="1">
                    <mxGeometry width="30" height="30" as="geometry"/>
                </mxCell>
                <mxCell id="s-KigwSb3vza7i4PE5DC-47" value="Name: str" style="shape=partialRectangle;overflow=hidden;connectable=0;fillColor=none;top=0;left=0;bottom=0;right=0;align=left;spacingLeft=6;strokeColor=#E07A5F;fontColor=#393C56;" parent="s-KigwSb3vza7i4PE5DC-45" vertex="1">
                    <mxGeometry x="30" width="230" height="30" as="geometry"/>
                </mxCell>
                <mxCell id="s-KigwSb3vza7i4PE5DC-48" value="" style="shape=partialRectangle;collapsible=0;dropTarget=0;pointerEvents=0;fillColor=none;points=[[0,0.5],[1,0.5]];portConstraint=eastwest;top=0;left=0;right=0;bottom=0;strokeColor=#E07A5F;fontColor=#393C56;" parent="s-KigwSb3vza7i4PE5DC-41" vertex="1">
                    <mxGeometry y="90" width="260" height="30" as="geometry"/>
                </mxCell>
                <mxCell id="s-KigwSb3vza7i4PE5DC-49" value="" style="shape=partialRectangle;overflow=hidden;connectable=0;fillColor=none;top=0;left=0;bottom=0;right=0;strokeColor=#E07A5F;fontColor=#393C56;" parent="s-KigwSb3vza7i4PE5DC-48" vertex="1">
                    <mxGeometry width="30" height="30" as="geometry"/>
                </mxCell>
                <mxCell id="s-KigwSb3vza7i4PE5DC-50" value="animals = []" style="shape=partialRectangle;overflow=hidden;connectable=0;fillColor=none;top=0;left=0;bottom=0;right=0;align=left;spacingLeft=6;strokeColor=#E07A5F;fontColor=#393C56;" parent="s-KigwSb3vza7i4PE5DC-48" vertex="1">
                    <mxGeometry x="30" width="230" height="30" as="geometry"/>
                </mxCell>
                <mxCell id="s-KigwSb3vza7i4PE5DC-51" value="" style="shape=partialRectangle;collapsible=0;dropTarget=0;pointerEvents=0;fillColor=none;points=[[0,0.5],[1,0.5]];portConstraint=eastwest;top=0;left=0;right=0;bottom=0;strokeColor=#E07A5F;fontColor=#393C56;" parent="s-KigwSb3vza7i4PE5DC-41" vertex="1">
                    <mxGeometry y="120" width="260" height="30" as="geometry"/>
                </mxCell>
                <mxCell id="s-KigwSb3vza7i4PE5DC-52" value="" style="shape=partialRectangle;overflow=hidden;connectable=0;fillColor=none;top=0;left=0;bottom=0;right=0;strokeColor=#E07A5F;fontColor=#393C56;" parent="s-KigwSb3vza7i4PE5DC-51" vertex="1">
                    <mxGeometry width="30" height="30" as="geometry"/>
                </mxCell>
                <mxCell id="s-KigwSb3vza7i4PE5DC-53" value="customers = []" style="shape=partialRectangle;overflow=hidden;connectable=0;fillColor=none;top=0;left=0;bottom=0;right=0;align=left;spacingLeft=6;strokeColor=#E07A5F;fontColor=#393C56;" parent="s-KigwSb3vza7i4PE5DC-51" vertex="1">
                    <mxGeometry x="30" width="230" height="30" as="geometry"/>
                </mxCell>
                <mxCell id="s-KigwSb3vza7i4PE5DC-54" value="" style="shape=partialRectangle;collapsible=0;dropTarget=0;pointerEvents=0;fillColor=none;points=[[0,0.5],[1,0.5]];portConstraint=eastwest;top=0;left=0;right=0;bottom=0;strokeColor=#E07A5F;fontColor=#393C56;" parent="s-KigwSb3vza7i4PE5DC-41" vertex="1">
                    <mxGeometry y="150" width="260" height="30" as="geometry"/>
                </mxCell>
                <mxCell id="s-KigwSb3vza7i4PE5DC-55" value="" style="shape=partialRectangle;overflow=hidden;connectable=0;fillColor=none;top=0;left=0;bottom=0;right=0;strokeColor=#E07A5F;fontColor=#393C56;" parent="s-KigwSb3vza7i4PE5DC-54" vertex="1">
                    <mxGeometry width="30" height="30" as="geometry"/>
                </mxCell>
                <mxCell id="s-KigwSb3vza7i4PE5DC-56" value="" style="shape=partialRectangle;overflow=hidden;connectable=0;fillColor=none;top=0;left=0;bottom=0;right=0;align=left;spacingLeft=6;strokeColor=#E07A5F;fontColor=#393C56;" parent="s-KigwSb3vza7i4PE5DC-54" vertex="1">
                    <mxGeometry x="30" width="230" height="30" as="geometry"/>
                </mxCell>
                <mxCell id="s-KigwSb3vza7i4PE5DC-57" value="" style="shape=partialRectangle;collapsible=0;dropTarget=0;pointerEvents=0;fillColor=none;points=[[0,0.5],[1,0.5]];portConstraint=eastwest;top=0;left=0;right=0;bottom=0;strokeColor=#E07A5F;fontColor=#393C56;" parent="s-KigwSb3vza7i4PE5DC-41" vertex="1">
                    <mxGeometry y="180" width="260" height="30" as="geometry"/>
                </mxCell>
                <mxCell id="s-KigwSb3vza7i4PE5DC-58" value="" style="shape=partialRectangle;overflow=hidden;connectable=0;fillColor=none;top=0;left=0;bottom=0;right=0;strokeColor=#E07A5F;fontColor=#393C56;" parent="s-KigwSb3vza7i4PE5DC-57" vertex="1">
                    <mxGeometry width="30" height="30" as="geometry"/>
                </mxCell>
                <mxCell id="s-KigwSb3vza7i4PE5DC-59" value="" style="shape=partialRectangle;overflow=hidden;connectable=0;fillColor=none;top=0;left=0;bottom=0;right=0;align=left;spacingLeft=6;strokeColor=#E07A5F;fontColor=#393C56;" parent="s-KigwSb3vza7i4PE5DC-57" vertex="1">
                    <mxGeometry x="30" width="230" height="30" as="geometry"/>
                </mxCell>
                <mxCell id="s-KigwSb3vza7i4PE5DC-60" value="" style="shape=partialRectangle;collapsible=0;dropTarget=0;pointerEvents=0;fillColor=none;points=[[0,0.5],[1,0.5]];portConstraint=eastwest;top=0;left=0;right=0;bottom=0;strokeColor=#E07A5F;fontColor=#393C56;" parent="s-KigwSb3vza7i4PE5DC-41" vertex="1">
                    <mxGeometry y="210" width="260" height="30" as="geometry"/>
                </mxCell>
                <mxCell id="s-KigwSb3vza7i4PE5DC-61" value="" style="shape=partialRectangle;overflow=hidden;connectable=0;fillColor=none;top=0;left=0;bottom=0;right=0;strokeColor=#E07A5F;fontColor=#393C56;" parent="s-KigwSb3vza7i4PE5DC-60" vertex="1">
                    <mxGeometry width="30" height="30" as="geometry"/>
                </mxCell>
                <mxCell id="s-KigwSb3vza7i4PE5DC-62" value="register_animal()" style="shape=partialRectangle;overflow=hidden;connectable=0;fillColor=none;top=0;left=0;bottom=0;right=0;align=left;spacingLeft=6;strokeColor=#E07A5F;fontColor=#393C56;" parent="s-KigwSb3vza7i4PE5DC-60" vertex="1">
                    <mxGeometry x="30" width="230" height="30" as="geometry"/>
                </mxCell>
                <mxCell id="s-KigwSb3vza7i4PE5DC-63" value="" style="shape=partialRectangle;collapsible=0;dropTarget=0;pointerEvents=0;fillColor=none;points=[[0,0.5],[1,0.5]];portConstraint=eastwest;top=0;left=0;right=0;bottom=0;strokeColor=#E07A5F;fontColor=#393C56;" parent="s-KigwSb3vza7i4PE5DC-41" vertex="1">
                    <mxGeometry y="240" width="260" height="30" as="geometry"/>
                </mxCell>
                <mxCell id="s-KigwSb3vza7i4PE5DC-64" value="" style="shape=partialRectangle;overflow=hidden;connectable=0;fillColor=none;top=0;left=0;bottom=0;right=0;strokeColor=#E07A5F;fontColor=#393C56;" parent="s-KigwSb3vza7i4PE5DC-63" vertex="1">
                    <mxGeometry width="30" height="30" as="geometry"/>
                </mxCell>
                <mxCell id="s-KigwSb3vza7i4PE5DC-65" value="delete_animal()" style="shape=partialRectangle;overflow=hidden;connectable=0;fillColor=none;top=0;left=0;bottom=0;right=0;align=left;spacingLeft=6;strokeColor=#E07A5F;fontColor=#393C56;" parent="s-KigwSb3vza7i4PE5DC-63" vertex="1">
                    <mxGeometry x="30" width="230" height="30" as="geometry"/>
                </mxCell>
                <mxCell id="6WYZzebc0GBA0RKRzfge-1" value="" style="edgeStyle=entityRelationEdgeStyle;fontSize=12;html=1;endArrow=ERoneToMany;strokeColor=#E07A5F;fillColor=#F2CC8F;curved=1;fontColor=#393C56;labelBackgroundColor=#F4F1DE;" parent="1" edge="1">
                    <mxGeometry width="100" height="100" relative="1" as="geometry">
                        <mxPoint x="237" y="550" as="sourcePoint"/>
                        <mxPoint x="360" y="620" as="targetPoint"/>
                    </mxGeometry>
                </mxCell>
                <mxCell id="6WYZzebc0GBA0RKRzfge-2" value="one-to-many" style="text;html=1;align=center;verticalAlign=middle;resizable=0;points=[];autosize=1;fontColor=#393C56;" parent="1" vertex="1">
                    <mxGeometry x="205" y="590" width="80" height="20" as="geometry"/>
                </mxCell>
                <mxCell id="6WYZzebc0GBA0RKRzfge-3" value="" style="edgeStyle=entityRelationEdgeStyle;fontSize=12;html=1;endArrow=ERoneToMany;strokeColor=#E07A5F;fillColor=#F2CC8F;curved=1;exitX=0.568;exitY=-0.008;exitDx=0;exitDy=0;exitPerimeter=0;fontColor=#393C56;labelBackgroundColor=#F4F1DE;" parent="1" source="C-vyLk0tnHw3VtMMgP7b-23" edge="1">
                    <mxGeometry width="100" height="100" relative="1" as="geometry">
                        <mxPoint x="440" y="550" as="sourcePoint"/>
                        <mxPoint x="610" y="530" as="targetPoint"/>
                    </mxGeometry>
                </mxCell>
                <mxCell id="6WYZzebc0GBA0RKRzfge-4" value="one-to-many" style="text;html=1;align=center;verticalAlign=middle;resizable=0;points=[];autosize=1;fontColor=#393C56;" parent="1" vertex="1">
                    <mxGeometry x="410" y="570" width="80" height="20" as="geometry"/>
                </mxCell>
                <mxCell id="2" value="Text" style="text;html=1;strokeColor=none;fillColor=none;align=center;verticalAlign=middle;whiteSpace=wrap;rounded=0;sketch=0;fontColor=#393C56;" vertex="1" parent="1">
                    <mxGeometry x="180" y="100" width="40" height="20" as="geometry"/>
                </mxCell>
            </root>
        </mxGraphModel>
    </diagram>
    <diagram id="rSBqZeCoSOHBdyiPo5w2" name="Page-2">
        <mxGraphModel dx="928" dy="565" grid="1" gridSize="10" guides="1" tooltips="1" connect="1" arrows="1" fold="1" page="1" pageScale="1" pageWidth="827" pageHeight="1169" math="0" shadow="0">
            <root>
                <mxCell id="lDHYs7ZyNJDyZTK_fsyR-0"/>
                <mxCell id="lDHYs7ZyNJDyZTK_fsyR-1" parent="lDHYs7ZyNJDyZTK_fsyR-0"/>
                <mxCell id="Sy6s8A0JcSs1XR2398G7-0" value="MODEL" style="text;html=1;align=center;verticalAlign=middle;resizable=0;points=[];autosize=1;fontColor=#095C86;fontStyle=1" parent="lDHYs7ZyNJDyZTK_fsyR-1" vertex="1">
                    <mxGeometry x="120" y="30" width="60" height="20" as="geometry"/>
                </mxCell>
                <mxCell id="Sy6s8A0JcSs1XR2398G7-1" value="DATABASE" style="text;html=1;align=center;verticalAlign=middle;resizable=0;points=[];autosize=1;fontColor=#095C86;fontStyle=1" parent="lDHYs7ZyNJDyZTK_fsyR-1" vertex="1">
                    <mxGeometry x="110" y="330" width="80" height="20" as="geometry"/>
                </mxCell>
                <mxCell id="Sy6s8A0JcSs1XR2398G7-2" value="Animals" style="swimlane;fontStyle=0;childLayout=stackLayout;horizontal=1;startSize=26;horizontalStack=0;resizeParent=1;resizeParentMax=0;resizeLast=0;collapsible=1;marginBottom=0;align=center;fontSize=14;rounded=0;strokeColor=#AF45ED;fillColor=#F694C1;fontColor=#095C86;" parent="lDHYs7ZyNJDyZTK_fsyR-1" vertex="1">
                    <mxGeometry x="90" y="70" width="160" height="188" as="geometry"/>
                </mxCell>
                <mxCell id="Sy6s8A0JcSs1XR2398G7-3" value="NAME = STR" style="text;strokeColor=none;fillColor=none;spacingLeft=4;spacingRight=4;overflow=hidden;rotatable=0;points=[[0,0.5],[1,0.5]];portConstraint=eastwest;fontSize=12;fontColor=#095C86;" parent="Sy6s8A0JcSs1XR2398G7-2" vertex="1">
                    <mxGeometry y="26" width="160" height="30" as="geometry"/>
                </mxCell>
                <mxCell id="Sy6s8A0JcSs1XR2398G7-4" value="DOB = STR" style="text;strokeColor=none;fillColor=none;spacingLeft=4;spacingRight=4;overflow=hidden;rotatable=0;points=[[0,0.5],[1,0.5]];portConstraint=eastwest;fontSize=12;fontColor=#095C86;" parent="Sy6s8A0JcSs1XR2398G7-2" vertex="1">
                    <mxGeometry y="56" width="160" height="30" as="geometry"/>
                </mxCell>
                <mxCell id="Sy6s8A0JcSs1XR2398G7-5" value="TYPE = STR" style="text;strokeColor=none;fillColor=none;spacingLeft=4;spacingRight=4;overflow=hidden;rotatable=0;points=[[0,0.5],[1,0.5]];portConstraint=eastwest;fontSize=12;fontColor=#095C86;" parent="Sy6s8A0JcSs1XR2398G7-2" vertex="1">
                    <mxGeometry y="86" width="160" height="34" as="geometry"/>
                </mxCell>
                <mxCell id="Sy6s8A0JcSs1XR2398G7-6" value="CONTACT_DETAILS = INT" style="text;strokeColor=none;fillColor=none;spacingLeft=4;spacingRight=4;overflow=hidden;rotatable=0;points=[[0,0.5],[1,0.5]];portConstraint=eastwest;fontSize=12;fontColor=#095C86;" parent="Sy6s8A0JcSs1XR2398G7-2" vertex="1">
                    <mxGeometry y="120" width="160" height="34" as="geometry"/>
                </mxCell>
                <mxCell id="Sy6s8A0JcSs1XR2398G7-7" value="NOTES = STR" style="text;strokeColor=none;fillColor=none;spacingLeft=4;spacingRight=4;overflow=hidden;rotatable=0;points=[[0,0.5],[1,0.5]];portConstraint=eastwest;fontSize=12;fontColor=#095C86;" parent="Sy6s8A0JcSs1XR2398G7-2" vertex="1">
                    <mxGeometry y="154" width="160" height="34" as="geometry"/>
                </mxCell>
                <mxCell id="Sy6s8A0JcSs1XR2398G7-23" value="Animals" style="shape=table;html=1;whiteSpace=wrap;startSize=30;container=1;collapsible=0;childLayout=tableLayout;fontStyle=1;align=center;rounded=0;strokeColor=#AF45ED;fillColor=#F694C1;fontColor=#095C86;" parent="lDHYs7ZyNJDyZTK_fsyR-1" vertex="1">
                    <mxGeometry x="80" y="740" width="1350" height="180" as="geometry"/>
                </mxCell>
                <mxCell id="Sy6s8A0JcSs1XR2398G7-24" value="" style="shape=partialRectangle;html=1;whiteSpace=wrap;collapsible=0;dropTarget=0;pointerEvents=0;fillColor=none;top=0;left=0;bottom=0;right=0;points=[[0,0.5],[1,0.5]];portConstraint=eastwest;strokeColor=#AF45ED;fontColor=#095C86;" parent="Sy6s8A0JcSs1XR2398G7-23" vertex="1">
                    <mxGeometry y="30" width="1350" height="50" as="geometry"/>
                </mxCell>
                <mxCell id="Sy6s8A0JcSs1XR2398G7-25" value="PK_Animal_ID" style="shape=partialRectangle;html=1;whiteSpace=wrap;connectable=0;fillColor=none;top=0;left=0;bottom=0;right=0;overflow=hidden;strokeColor=#AF45ED;fontColor=#095C86;" parent="Sy6s8A0JcSs1XR2398G7-24" vertex="1">
                    <mxGeometry width="168" height="50" as="geometry"/>
                </mxCell>
                <mxCell id="Sy6s8A0JcSs1XR2398G7-26" value="NAME" style="shape=partialRectangle;html=1;whiteSpace=wrap;connectable=0;fillColor=none;top=0;left=0;bottom=0;right=0;overflow=hidden;strokeColor=#AF45ED;fontColor=#095C86;" parent="Sy6s8A0JcSs1XR2398G7-24" vertex="1">
                    <mxGeometry x="168" width="172" height="50" as="geometry"/>
                </mxCell>
                <mxCell id="Sy6s8A0JcSs1XR2398G7-27" value="DOB" style="shape=partialRectangle;html=1;whiteSpace=wrap;connectable=0;fillColor=none;top=0;left=0;bottom=0;right=0;overflow=hidden;strokeColor=#AF45ED;fontColor=#095C86;" parent="Sy6s8A0JcSs1XR2398G7-24" vertex="1">
                    <mxGeometry x="340" width="167" height="50" as="geometry"/>
                </mxCell>
                <mxCell id="Sy6s8A0JcSs1XR2398G7-51" value="TYPE" style="shape=partialRectangle;html=1;whiteSpace=wrap;connectable=0;fillColor=none;top=0;left=0;bottom=0;right=0;overflow=hidden;strokeColor=#AF45ED;fontColor=#095C86;" parent="Sy6s8A0JcSs1XR2398G7-24" vertex="1">
                    <mxGeometry x="507" width="169" height="50" as="geometry"/>
                </mxCell>
                <mxCell id="Sy6s8A0JcSs1XR2398G7-54" value="&lt;span&gt;CONTACT_DETAILS&lt;/span&gt;" style="shape=partialRectangle;html=1;whiteSpace=wrap;connectable=0;fillColor=none;top=0;left=0;bottom=0;right=0;overflow=hidden;strokeColor=#AF45ED;fontColor=#095C86;" parent="Sy6s8A0JcSs1XR2398G7-24" vertex="1">
                    <mxGeometry x="676" width="168" height="50" as="geometry"/>
                </mxCell>
                <mxCell id="Sy6s8A0JcSs1XR2398G7-48" value="NOTES" style="shape=partialRectangle;html=1;whiteSpace=wrap;connectable=0;fillColor=none;top=0;left=0;bottom=0;right=0;overflow=hidden;strokeColor=#AF45ED;fontColor=#095C86;" parent="Sy6s8A0JcSs1XR2398G7-24" vertex="1">
                    <mxGeometry x="844" width="170" height="50" as="geometry"/>
                </mxCell>
                <mxCell id="Wd3YeD7j31b_GXN4Pdq--17" value="FK_Vet_ID" style="shape=partialRectangle;html=1;whiteSpace=wrap;connectable=0;fillColor=none;top=0;left=0;bottom=0;right=0;overflow=hidden;strokeColor=#AF45ED;fontColor=#095C86;" parent="Sy6s8A0JcSs1XR2398G7-24" vertex="1">
                    <mxGeometry x="1014" width="168" height="50" as="geometry"/>
                </mxCell>
                <mxCell id="aN0Vx6FvsE0vehQAyJre-19" value="FK_Customer_ID&lt;br&gt;" style="shape=partialRectangle;html=1;whiteSpace=wrap;connectable=0;fillColor=none;top=0;left=0;bottom=0;right=0;overflow=hidden;strokeColor=#AF45ED;fontColor=#095C86;" parent="Sy6s8A0JcSs1XR2398G7-24" vertex="1">
                    <mxGeometry x="1182" width="168" height="50" as="geometry"/>
                </mxCell>
                <mxCell id="Sy6s8A0JcSs1XR2398G7-28" value="" style="shape=partialRectangle;html=1;whiteSpace=wrap;collapsible=0;dropTarget=0;pointerEvents=0;fillColor=none;top=0;left=0;bottom=0;right=0;points=[[0,0.5],[1,0.5]];portConstraint=eastwest;strokeColor=#AF45ED;fontColor=#095C86;" parent="Sy6s8A0JcSs1XR2398G7-23" vertex="1">
                    <mxGeometry y="80" width="1350" height="50" as="geometry"/>
                </mxCell>
                <mxCell id="Sy6s8A0JcSs1XR2398G7-29" value="1" style="shape=partialRectangle;html=1;whiteSpace=wrap;connectable=0;fillColor=none;top=0;left=0;bottom=0;right=0;overflow=hidden;strokeColor=#AF45ED;fontColor=#095C86;" parent="Sy6s8A0JcSs1XR2398G7-28" vertex="1">
                    <mxGeometry width="168" height="50" as="geometry"/>
                </mxCell>
                <mxCell id="Sy6s8A0JcSs1XR2398G7-30" value="ZERO" style="shape=partialRectangle;html=1;whiteSpace=wrap;connectable=0;fillColor=none;top=0;left=0;bottom=0;right=0;overflow=hidden;strokeColor=#AF45ED;fontColor=#095C86;" parent="Sy6s8A0JcSs1XR2398G7-28" vertex="1">
                    <mxGeometry x="168" width="172" height="50" as="geometry"/>
                </mxCell>
                <mxCell id="Sy6s8A0JcSs1XR2398G7-31" value="" style="shape=partialRectangle;html=1;whiteSpace=wrap;connectable=0;fillColor=none;top=0;left=0;bottom=0;right=0;overflow=hidden;strokeColor=#AF45ED;fontColor=#095C86;" parent="Sy6s8A0JcSs1XR2398G7-28" vertex="1">
                    <mxGeometry x="340" width="167" height="50" as="geometry"/>
                </mxCell>
                <mxCell id="Sy6s8A0JcSs1XR2398G7-52" style="shape=partialRectangle;html=1;whiteSpace=wrap;connectable=0;fillColor=none;top=0;left=0;bottom=0;right=0;overflow=hidden;strokeColor=#AF45ED;fontColor=#095C86;" parent="Sy6s8A0JcSs1XR2398G7-28" vertex="1">
                    <mxGeometry x="507" width="169" height="50" as="geometry"/>
                </mxCell>
                <mxCell id="Sy6s8A0JcSs1XR2398G7-55" style="shape=partialRectangle;html=1;whiteSpace=wrap;connectable=0;fillColor=none;top=0;left=0;bottom=0;right=0;overflow=hidden;strokeColor=#AF45ED;fontColor=#095C86;" parent="Sy6s8A0JcSs1XR2398G7-28" vertex="1">
                    <mxGeometry x="676" width="168" height="50" as="geometry"/>
                </mxCell>
                <mxCell id="Sy6s8A0JcSs1XR2398G7-49" style="shape=partialRectangle;html=1;whiteSpace=wrap;connectable=0;fillColor=none;top=0;left=0;bottom=0;right=0;overflow=hidden;strokeColor=#AF45ED;fontColor=#095C86;" parent="Sy6s8A0JcSs1XR2398G7-28" vertex="1">
                    <mxGeometry x="844" width="170" height="50" as="geometry"/>
                </mxCell>
                <mxCell id="Wd3YeD7j31b_GXN4Pdq--18" style="shape=partialRectangle;html=1;whiteSpace=wrap;connectable=0;fillColor=none;top=0;left=0;bottom=0;right=0;overflow=hidden;strokeColor=#AF45ED;fontColor=#095C86;" parent="Sy6s8A0JcSs1XR2398G7-28" vertex="1">
                    <mxGeometry x="1014" width="168" height="50" as="geometry"/>
                </mxCell>
                <mxCell id="aN0Vx6FvsE0vehQAyJre-20" style="shape=partialRectangle;html=1;whiteSpace=wrap;connectable=0;fillColor=none;top=0;left=0;bottom=0;right=0;overflow=hidden;strokeColor=#AF45ED;fontColor=#095C86;" parent="Sy6s8A0JcSs1XR2398G7-28" vertex="1">
                    <mxGeometry x="1182" width="168" height="50" as="geometry"/>
                </mxCell>
                <mxCell id="Sy6s8A0JcSs1XR2398G7-32" value="" style="shape=partialRectangle;html=1;whiteSpace=wrap;collapsible=0;dropTarget=0;pointerEvents=0;fillColor=none;top=0;left=0;bottom=0;right=0;points=[[0,0.5],[1,0.5]];portConstraint=eastwest;strokeColor=#AF45ED;fontColor=#095C86;" parent="Sy6s8A0JcSs1XR2398G7-23" vertex="1">
                    <mxGeometry y="130" width="1350" height="50" as="geometry"/>
                </mxCell>
                <mxCell id="Sy6s8A0JcSs1XR2398G7-33" value="2" style="shape=partialRectangle;html=1;whiteSpace=wrap;connectable=0;fillColor=none;top=0;left=0;bottom=0;right=0;overflow=hidden;strokeColor=#AF45ED;fontColor=#095C86;" parent="Sy6s8A0JcSs1XR2398G7-32" vertex="1">
                    <mxGeometry width="168" height="50" as="geometry"/>
                </mxCell>
                <mxCell id="Sy6s8A0JcSs1XR2398G7-34" value="LUNA" style="shape=partialRectangle;html=1;whiteSpace=wrap;connectable=0;fillColor=none;top=0;left=0;bottom=0;right=0;overflow=hidden;strokeColor=#AF45ED;fontColor=#095C86;" parent="Sy6s8A0JcSs1XR2398G7-32" vertex="1">
                    <mxGeometry x="168" width="172" height="50" as="geometry"/>
                </mxCell>
                <mxCell id="Sy6s8A0JcSs1XR2398G7-35" value="" style="shape=partialRectangle;html=1;whiteSpace=wrap;connectable=0;fillColor=none;top=0;left=0;bottom=0;right=0;overflow=hidden;strokeColor=#AF45ED;fontColor=#095C86;" parent="Sy6s8A0JcSs1XR2398G7-32" vertex="1">
                    <mxGeometry x="340" width="167" height="50" as="geometry"/>
                </mxCell>
                <mxCell id="Sy6s8A0JcSs1XR2398G7-53" style="shape=partialRectangle;html=1;whiteSpace=wrap;connectable=0;fillColor=none;top=0;left=0;bottom=0;right=0;overflow=hidden;strokeColor=#AF45ED;fontColor=#095C86;" parent="Sy6s8A0JcSs1XR2398G7-32" vertex="1">
                    <mxGeometry x="507" width="169" height="50" as="geometry"/>
                </mxCell>
                <mxCell id="Sy6s8A0JcSs1XR2398G7-56" style="shape=partialRectangle;html=1;whiteSpace=wrap;connectable=0;fillColor=none;top=0;left=0;bottom=0;right=0;overflow=hidden;strokeColor=#AF45ED;fontColor=#095C86;" parent="Sy6s8A0JcSs1XR2398G7-32" vertex="1">
                    <mxGeometry x="676" width="168" height="50" as="geometry"/>
                </mxCell>
                <mxCell id="Sy6s8A0JcSs1XR2398G7-50" style="shape=partialRectangle;html=1;whiteSpace=wrap;connectable=0;fillColor=none;top=0;left=0;bottom=0;right=0;overflow=hidden;strokeColor=#AF45ED;fontColor=#095C86;" parent="Sy6s8A0JcSs1XR2398G7-32" vertex="1">
                    <mxGeometry x="844" width="170" height="50" as="geometry"/>
                </mxCell>
                <mxCell id="Wd3YeD7j31b_GXN4Pdq--19" style="shape=partialRectangle;html=1;whiteSpace=wrap;connectable=0;fillColor=none;top=0;left=0;bottom=0;right=0;overflow=hidden;strokeColor=#AF45ED;fontColor=#095C86;" parent="Sy6s8A0JcSs1XR2398G7-32" vertex="1">
                    <mxGeometry x="1014" width="168" height="50" as="geometry"/>
                </mxCell>
                <mxCell id="aN0Vx6FvsE0vehQAyJre-21" style="shape=partialRectangle;html=1;whiteSpace=wrap;connectable=0;fillColor=none;top=0;left=0;bottom=0;right=0;overflow=hidden;strokeColor=#AF45ED;fontColor=#095C86;" parent="Sy6s8A0JcSs1XR2398G7-32" vertex="1">
                    <mxGeometry x="1182" width="168" height="50" as="geometry"/>
                </mxCell>
                <mxCell id="mhWflMuoH6KhJENKI_aJ-6" value="Vet" style="shape=table;html=1;whiteSpace=wrap;startSize=30;container=1;collapsible=0;childLayout=tableLayout;fontStyle=1;align=center;rounded=0;strokeColor=#AF45ED;fillColor=#F694C1;fontColor=#095C86;" parent="lDHYs7ZyNJDyZTK_fsyR-1" vertex="1">
                    <mxGeometry x="100" y="400" width="394" height="150" as="geometry"/>
                </mxCell>
                <mxCell id="mhWflMuoH6KhJENKI_aJ-7" value="" style="shape=partialRectangle;html=1;whiteSpace=wrap;collapsible=0;dropTarget=0;pointerEvents=0;fillColor=none;top=0;left=0;bottom=0;right=0;points=[[0,0.5],[1,0.5]];portConstraint=eastwest;strokeColor=#AF45ED;fontColor=#095C86;" parent="mhWflMuoH6KhJENKI_aJ-6" vertex="1">
                    <mxGeometry y="30" width="394" height="40" as="geometry"/>
                </mxCell>
                <mxCell id="mhWflMuoH6KhJENKI_aJ-8" value="PK_Vet_ID" style="shape=partialRectangle;html=1;whiteSpace=wrap;connectable=0;fillColor=none;top=0;left=0;bottom=0;right=0;overflow=hidden;strokeColor=#AF45ED;fontColor=#095C86;" parent="mhWflMuoH6KhJENKI_aJ-7" vertex="1">
                    <mxGeometry width="196" height="40" as="geometry"/>
                </mxCell>
                <mxCell id="mhWflMuoH6KhJENKI_aJ-9" value="NAME" style="shape=partialRectangle;html=1;whiteSpace=wrap;connectable=0;fillColor=none;top=0;left=0;bottom=0;right=0;overflow=hidden;strokeColor=#AF45ED;fontColor=#095C86;" parent="mhWflMuoH6KhJENKI_aJ-7" vertex="1">
                    <mxGeometry x="196" width="198" height="40" as="geometry"/>
                </mxCell>
                <mxCell id="mhWflMuoH6KhJENKI_aJ-14" value="" style="shape=partialRectangle;html=1;whiteSpace=wrap;collapsible=0;dropTarget=0;pointerEvents=0;fillColor=none;top=0;left=0;bottom=0;right=0;points=[[0,0.5],[1,0.5]];portConstraint=eastwest;strokeColor=#AF45ED;fontColor=#095C86;" parent="mhWflMuoH6KhJENKI_aJ-6" vertex="1">
                    <mxGeometry y="70" width="394" height="40" as="geometry"/>
                </mxCell>
                <mxCell id="mhWflMuoH6KhJENKI_aJ-15" value="1" style="shape=partialRectangle;html=1;whiteSpace=wrap;connectable=0;fillColor=none;top=0;left=0;bottom=0;right=0;overflow=hidden;strokeColor=#AF45ED;fontColor=#095C86;" parent="mhWflMuoH6KhJENKI_aJ-14" vertex="1">
                    <mxGeometry width="196" height="40" as="geometry"/>
                </mxCell>
                <mxCell id="mhWflMuoH6KhJENKI_aJ-16" value="Halo Pet Care" style="shape=partialRectangle;html=1;whiteSpace=wrap;connectable=0;fillColor=none;top=0;left=0;bottom=0;right=0;overflow=hidden;strokeColor=#AF45ED;fontColor=#095C86;" parent="mhWflMuoH6KhJENKI_aJ-14" vertex="1">
                    <mxGeometry x="196" width="198" height="40" as="geometry"/>
                </mxCell>
                <mxCell id="mhWflMuoH6KhJENKI_aJ-21" value="" style="shape=partialRectangle;html=1;whiteSpace=wrap;collapsible=0;dropTarget=0;pointerEvents=0;fillColor=none;top=0;left=0;bottom=0;right=0;points=[[0,0.5],[1,0.5]];portConstraint=eastwest;strokeColor=#AF45ED;fontColor=#095C86;" parent="mhWflMuoH6KhJENKI_aJ-6" vertex="1">
                    <mxGeometry y="110" width="394" height="40" as="geometry"/>
                </mxCell>
                <mxCell id="mhWflMuoH6KhJENKI_aJ-22" value="2" style="shape=partialRectangle;html=1;whiteSpace=wrap;connectable=0;fillColor=none;top=0;left=0;bottom=0;right=0;overflow=hidden;strokeColor=#AF45ED;fontColor=#095C86;" parent="mhWflMuoH6KhJENKI_aJ-21" vertex="1">
                    <mxGeometry width="196" height="40" as="geometry"/>
                </mxCell>
                <mxCell id="mhWflMuoH6KhJENKI_aJ-23" value="Do Littles" style="shape=partialRectangle;html=1;whiteSpace=wrap;connectable=0;fillColor=none;top=0;left=0;bottom=0;right=0;overflow=hidden;strokeColor=#AF45ED;fontColor=#095C86;" parent="mhWflMuoH6KhJENKI_aJ-21" vertex="1">
                    <mxGeometry x="196" width="198" height="40" as="geometry"/>
                </mxCell>
                <mxCell id="Wd3YeD7j31b_GXN4Pdq--20" value="" style="edgeStyle=elbowEdgeStyle;elbow=horizontal;endArrow=classic;html=1;strokeColor=#60E696;fillColor=#F694C1;fontSize=22;fontColor=#095C86;" parent="lDHYs7ZyNJDyZTK_fsyR-1" edge="1">
                    <mxGeometry width="50" height="50" relative="1" as="geometry">
                        <mxPoint x="400" y="580" as="sourcePoint"/>
                        <mxPoint x="1180" y="710" as="targetPoint"/>
                    </mxGeometry>
                </mxCell>
                <mxCell id="bBqlIy_WH5PAhfdDtOoR-35" value="Vets" style="swimlane;fontStyle=0;childLayout=stackLayout;horizontal=1;startSize=26;horizontalStack=0;resizeParent=1;resizeParentMax=0;resizeLast=0;collapsible=1;marginBottom=0;align=center;fontSize=14;rounded=0;strokeColor=#AF45ED;fillColor=#F694C1;fontColor=#095C86;" parent="lDHYs7ZyNJDyZTK_fsyR-1" vertex="1">
                    <mxGeometry x="316" y="70" width="160" height="90" as="geometry"/>
                </mxCell>
                <mxCell id="bBqlIy_WH5PAhfdDtOoR-36" value="NAME = STR" style="text;strokeColor=none;fillColor=none;spacingLeft=4;spacingRight=4;overflow=hidden;rotatable=0;points=[[0,0.5],[1,0.5]];portConstraint=eastwest;fontSize=12;fontColor=#095C86;" parent="bBqlIy_WH5PAhfdDtOoR-35" vertex="1">
                    <mxGeometry y="26" width="160" height="30" as="geometry"/>
                </mxCell>
                <mxCell id="bBqlIy_WH5PAhfdDtOoR-38" value="animals = []" style="text;strokeColor=none;fillColor=none;spacingLeft=4;spacingRight=4;overflow=hidden;rotatable=0;points=[[0,0.5],[1,0.5]];portConstraint=eastwest;fontSize=12;fontColor=#095C86;" parent="bBqlIy_WH5PAhfdDtOoR-35" vertex="1">
                    <mxGeometry y="56" width="160" height="34" as="geometry"/>
                </mxCell>
                <mxCell id="aN0Vx6FvsE0vehQAyJre-6" value="Customer" style="shape=table;html=1;whiteSpace=wrap;startSize=30;container=1;collapsible=0;childLayout=tableLayout;fontStyle=1;align=center;rounded=0;strokeColor=#AF45ED;fillColor=#F694C1;fontColor=#095C86;" parent="lDHYs7ZyNJDyZTK_fsyR-1" vertex="1">
                    <mxGeometry x="840" y="400" width="394" height="150" as="geometry"/>
                </mxCell>
                <mxCell id="aN0Vx6FvsE0vehQAyJre-7" value="" style="shape=partialRectangle;html=1;whiteSpace=wrap;collapsible=0;dropTarget=0;pointerEvents=0;fillColor=none;top=0;left=0;bottom=0;right=0;points=[[0,0.5],[1,0.5]];portConstraint=eastwest;strokeColor=#AF45ED;fontColor=#095C86;" parent="aN0Vx6FvsE0vehQAyJre-6" vertex="1">
                    <mxGeometry y="30" width="394" height="40" as="geometry"/>
                </mxCell>
                <mxCell id="aN0Vx6FvsE0vehQAyJre-8" value="PK_Customer_ID" style="shape=partialRectangle;html=1;whiteSpace=wrap;connectable=0;fillColor=none;top=0;left=0;bottom=0;right=0;overflow=hidden;strokeColor=#AF45ED;fontColor=#095C86;" parent="aN0Vx6FvsE0vehQAyJre-7" vertex="1">
                    <mxGeometry width="196" height="40" as="geometry"/>
                </mxCell>
                <mxCell id="aN0Vx6FvsE0vehQAyJre-9" value="NAME" style="shape=partialRectangle;html=1;whiteSpace=wrap;connectable=0;fillColor=none;top=0;left=0;bottom=0;right=0;overflow=hidden;strokeColor=#AF45ED;fontColor=#095C86;" parent="aN0Vx6FvsE0vehQAyJre-7" vertex="1">
                    <mxGeometry x="196" width="198" height="40" as="geometry"/>
                </mxCell>
                <mxCell id="aN0Vx6FvsE0vehQAyJre-10" value="" style="shape=partialRectangle;html=1;whiteSpace=wrap;collapsible=0;dropTarget=0;pointerEvents=0;fillColor=none;top=0;left=0;bottom=0;right=0;points=[[0,0.5],[1,0.5]];portConstraint=eastwest;strokeColor=#AF45ED;fontColor=#095C86;" parent="aN0Vx6FvsE0vehQAyJre-6" vertex="1">
                    <mxGeometry y="70" width="394" height="40" as="geometry"/>
                </mxCell>
                <mxCell id="aN0Vx6FvsE0vehQAyJre-11" value="1" style="shape=partialRectangle;html=1;whiteSpace=wrap;connectable=0;fillColor=none;top=0;left=0;bottom=0;right=0;overflow=hidden;strokeColor=#AF45ED;fontColor=#095C86;" parent="aN0Vx6FvsE0vehQAyJre-10" vertex="1">
                    <mxGeometry width="196" height="40" as="geometry"/>
                </mxCell>
                <mxCell id="aN0Vx6FvsE0vehQAyJre-12" value="Reece Charity" style="shape=partialRectangle;html=1;whiteSpace=wrap;connectable=0;fillColor=none;top=0;left=0;bottom=0;right=0;overflow=hidden;strokeColor=#AF45ED;fontColor=#095C86;" parent="aN0Vx6FvsE0vehQAyJre-10" vertex="1">
                    <mxGeometry x="196" width="198" height="40" as="geometry"/>
                </mxCell>
                <mxCell id="aN0Vx6FvsE0vehQAyJre-13" value="" style="shape=partialRectangle;html=1;whiteSpace=wrap;collapsible=0;dropTarget=0;pointerEvents=0;fillColor=none;top=0;left=0;bottom=0;right=0;points=[[0,0.5],[1,0.5]];portConstraint=eastwest;strokeColor=#AF45ED;fontColor=#095C86;" parent="aN0Vx6FvsE0vehQAyJre-6" vertex="1">
                    <mxGeometry y="110" width="394" height="40" as="geometry"/>
                </mxCell>
                <mxCell id="aN0Vx6FvsE0vehQAyJre-14" value="2" style="shape=partialRectangle;html=1;whiteSpace=wrap;connectable=0;fillColor=none;top=0;left=0;bottom=0;right=0;overflow=hidden;strokeColor=#AF45ED;fontColor=#095C86;" parent="aN0Vx6FvsE0vehQAyJre-13" vertex="1">
                    <mxGeometry width="196" height="40" as="geometry"/>
                </mxCell>
                <mxCell id="aN0Vx6FvsE0vehQAyJre-15" value="Muran Battison" style="shape=partialRectangle;html=1;whiteSpace=wrap;connectable=0;fillColor=none;top=0;left=0;bottom=0;right=0;overflow=hidden;strokeColor=#AF45ED;fontColor=#095C86;" parent="aN0Vx6FvsE0vehQAyJre-13" vertex="1">
                    <mxGeometry x="196" width="198" height="40" as="geometry"/>
                </mxCell>
                <mxCell id="aN0Vx6FvsE0vehQAyJre-16" value="Customer" style="swimlane;fontStyle=0;childLayout=stackLayout;horizontal=1;startSize=26;horizontalStack=0;resizeParent=1;resizeParentMax=0;resizeLast=0;collapsible=1;marginBottom=0;align=center;fontSize=14;rounded=0;strokeColor=#AF45ED;fillColor=#F694C1;fontColor=#095C86;" parent="lDHYs7ZyNJDyZTK_fsyR-1" vertex="1">
                    <mxGeometry x="530" y="70" width="160" height="90" as="geometry"/>
                </mxCell>
                <mxCell id="aN0Vx6FvsE0vehQAyJre-17" value="NAME = STR" style="text;strokeColor=none;fillColor=none;spacingLeft=4;spacingRight=4;overflow=hidden;rotatable=0;points=[[0,0.5],[1,0.5]];portConstraint=eastwest;fontSize=12;fontColor=#095C86;" parent="aN0Vx6FvsE0vehQAyJre-16" vertex="1">
                    <mxGeometry y="26" width="160" height="30" as="geometry"/>
                </mxCell>
                <mxCell id="aN0Vx6FvsE0vehQAyJre-18" value="animals = []" style="text;strokeColor=none;fillColor=none;spacingLeft=4;spacingRight=4;overflow=hidden;rotatable=0;points=[[0,0.5],[1,0.5]];portConstraint=eastwest;fontSize=12;fontColor=#095C86;" parent="aN0Vx6FvsE0vehQAyJre-16" vertex="1">
                    <mxGeometry y="56" width="160" height="34" as="geometry"/>
                </mxCell>
                <mxCell id="aN0Vx6FvsE0vehQAyJre-22" value="" style="edgeStyle=elbowEdgeStyle;elbow=horizontal;endArrow=classic;html=1;strokeColor=#60E696;fillColor=#F694C1;fontSize=22;fontColor=#095C86;" parent="lDHYs7ZyNJDyZTK_fsyR-1" edge="1">
                    <mxGeometry width="50" height="50" relative="1" as="geometry">
                        <mxPoint x="1150" y="585" as="sourcePoint"/>
                        <mxPoint x="1340" y="715" as="targetPoint"/>
                        <Array as="points">
                            <mxPoint x="1240" y="650"/>
                        </Array>
                    </mxGeometry>
                </mxCell>
            </root>
        </mxGraphModel>
    </diagram>
</mxfile>